# xmcd CD database file
#
# Track frame offsets:
#	150
#	24120
#	43265
#	62172
#	80780
#	106595
#	125017
#	157302
#	174175
#	196292
#
# Disc length: 2863 seconds
#
# Revision: 1
# Processed by: cddbd v1.5.2PL0 Copyright (c) Steve Scherf et al.
# Submitted via: CDex 1.51
#
DISCID=810b2d0a
DTITLE=John Littlejohn and Carey Bell - The Blues Show! - Live At The Pit Inn
DYEAR=1981
DGENRE=Blues
TTITLE0=Bloody Tears
TTITLE1=Hoochie Coochie Man
TTITLE2=Mama Told Me
TTITLE3=Sweet Home Chicago
TTITLE4=Dream
TTITLE5=Carey Bell's Rock
TTITLE6=Easy To Love You
TTITLE7=Kiddio
TTITLE8=Slidin' Home
TTITLE9=Shake Your Money Maker
EXTD=YEAR: 1981
EXTT0=
EXTT1=
EXTT2=
EXTT3=
EXTT4=
EXTT5=
EXTT6=
EXTT7=
EXTT8=
EXTT9=
PLAYORDER=
